<?xml version="1.0" encoding="UTF-8"?> <svg xmlns="http://www.w3.org/2000/svg" width="370" height="204" viewBox="0 0 370 204" fill="none"><path d="M370 0H0V204H370V0Z" fill="#CFECF9"></path><path d="M42.7498 39.7527H86.3106C89.0034 39.7527 89.1258 35.7271 86.433 35.5911C85.4402 35.5367 84.3386 35.5367 83.1146 35.6183C87.5618 30.4503 74.5738 13.6135 62.429 30.8447C62.429 30.8447 54.473 22.5623 49.6994 35.3055C49.6858 34.2583 45.5786 31.3751 42.4914 32.8575C38.493 34.7887 39.853 39.6575 42.7498 39.7663V39.7527Z" fill="white"></path><path d="M103.202 49.6944C97.6938 49.8712 97.8434 58.14 103.351 58.208C116.271 58.3576 139.527 58.684 152.991 58.684C152.991 58.684 161.41 58.684 162.566 52.564C163.722 46.444 156.051 46.8248 153.753 48.348C160.73 31.2392 134.659 13.3824 118.515 43.86C118.515 43.86 110.083 42.0376 108.057 51.204C106.615 50.0752 104.888 49.64 103.202 49.6944Z" fill="white"></path><path d="M173.242 79.0568C171.447 79.0432 169.665 79.4784 168.087 80.3352C160.213 84.6192 135.284 98.2056 127.383 102.748C125.819 103.646 124.839 105.278 124.799 107.086L123.248 166.464C123.248 168.232 124.676 169.66 126.444 169.66H213.171C214.939 169.66 216.367 168.232 216.367 166.464L215.511 79.5056L173.255 79.0568H173.242Z" fill="#FDF4E5"></path><path d="M260.078 104.19L254.067 100.817V90.3584C254.067 88.944 252.911 87.788 251.496 87.788H245.567C244.152 87.788 242.996 88.944 242.996 90.3584V94.6152L216.707 79.8728C215.742 79.3288 214.559 79.3288 213.579 79.8728L170.209 104.19C169.203 104.761 168.577 105.822 168.577 106.978V166.464C168.577 168.232 170.005 169.66 171.773 169.66H258.5C260.268 169.66 261.696 168.232 261.696 166.464V106.978C261.696 105.822 261.071 104.761 260.064 104.19H260.078Z" fill="white"></path><path d="M245.539 119.15H236.958V129.309H245.539V119.15Z" fill="#C8EDFB"></path><path d="M255.345 119.15H246.763V129.309H255.345V119.15Z" fill="#C8EDFB"></path><path d="M245.539 130.696H236.958V140.855H245.539V130.696Z" fill="#C8EDFB"></path><path d="M255.345 130.696H246.763V140.855H255.345V130.696Z" fill="#C8EDFB"></path><path d="M183.523 119.15H174.942V129.309H183.523V119.15Z" fill="#C8EDFB"></path><path d="M193.329 119.15H184.747V129.309H193.329V119.15Z" fill="#C8EDFB"></path><path d="M183.523 130.696H174.942V140.855H183.523V130.696Z" fill="#C8EDFB"></path><path d="M193.329 130.696H184.747V140.855H193.329V130.696Z" fill="#C8EDFB"></path><path d="M227.016 137.496H203.271V169.66H227.016V137.496Z" fill="#FFB000"></path><path d="M107.377 136.925C117.72 136.925 126.104 130.617 126.104 122.835C126.104 115.054 117.72 108.746 107.377 108.746C97.0342 108.746 88.6498 115.054 88.6498 122.835C88.6498 130.617 97.0342 136.925 107.377 136.925Z" fill="#02C14F"></path><path d="M109.607 123.175C124.967 123.175 137.419 112.057 137.419 98.3417C137.419 84.6264 124.967 73.5081 109.607 73.5081C94.2472 73.5081 81.7953 84.6264 81.7953 98.3417C81.7953 112.057 94.2472 123.175 109.607 123.175Z" fill="#02C14F"></path><path d="M120.12 138.448C135.48 138.448 147.932 127.33 147.932 113.614C147.932 99.8993 135.48 88.7809 120.12 88.7809C104.76 88.7809 92.3082 99.8993 92.3082 113.614C92.3082 127.33 104.76 138.448 120.12 138.448Z" fill="#02C14F"></path><path d="M105.976 169.66H114.503V129.676C114.503 129.676 132.211 129.622 128.987 99.0353C128.933 98.5593 128.539 98.2057 128.063 98.2057C127.519 98.2057 127.097 98.6681 127.138 99.1985C127.546 104.176 128.511 126.154 114.49 127.228L118.148 87.4481C118.23 86.6185 117.577 85.9113 116.747 85.9113C116.027 85.9113 115.428 86.4553 115.347 87.1625L112.64 111.044C112.572 111.71 111.756 111.969 111.294 111.493L97.2993 96.4649C96.9185 96.0569 96.2657 96.0433 95.8713 96.4649C95.5177 96.8321 95.5041 97.4169 95.8441 97.7977L110.342 114.131L105.935 169.66H105.976Z" fill="#053C5E"></path><path d="M81.7953 169.66H276.52" stroke="#02C14F" stroke-width="2" stroke-miterlimit="10" stroke-linecap="round"></path><path d="M319.504 56.0728C324.897 56.0728 329.269 51.701 329.269 46.308C329.269 40.9151 324.897 36.5432 319.504 36.5432C314.111 36.5432 309.739 40.9151 309.739 46.308C309.739 51.701 314.111 56.0728 319.504 56.0728Z" fill="white"></path><path d="M303.456 60.3023L305.169 58.8607L307.889 56.5759L308.515 56.0455C308.923 55.7055 308.393 55.0663 307.985 55.4063L306.271 56.8479L303.551 59.1327L302.925 59.6631C302.517 60.0031 303.048 60.6423 303.456 60.3023Z" fill="white"></path><path d="M303.197 60.5607C303.197 60.5607 303.075 60.5607 303.007 60.5335C302.803 60.4655 302.64 60.2751 302.613 60.0575C302.572 59.8671 302.653 59.6767 302.817 59.5407L307.889 55.2839C308.053 55.1479 308.257 55.1071 308.433 55.1751C308.637 55.2431 308.801 55.4335 308.828 55.6511C308.869 55.8415 308.787 56.0319 308.624 56.1679L303.551 60.4247C303.442 60.5199 303.32 60.5607 303.184 60.5607H303.197ZM308.243 55.4743C308.243 55.4743 308.148 55.4879 308.093 55.5287L303.021 59.7855C302.953 59.8399 302.926 59.9079 302.939 59.9895C302.953 60.0847 303.034 60.1799 303.116 60.2071C303.197 60.2343 303.265 60.2071 303.333 60.1663L308.406 55.9095C308.474 55.8551 308.502 55.7871 308.488 55.7055C308.474 55.6103 308.393 55.5151 308.311 55.4879C308.284 55.4879 308.257 55.4879 308.243 55.4879V55.4743Z" fill="white"></path><path d="M298.614 50.4015L300.817 50.0071L304.313 49.3951L305.129 49.2591C305.659 49.1639 305.509 48.3479 304.979 48.4431L302.776 48.8375L299.281 49.4495L298.465 49.5855C297.934 49.6807 298.084 50.4967 298.614 50.4015Z" fill="white"></path><path d="M298.533 50.5783C298.369 50.5783 298.22 50.5103 298.111 50.3879C297.975 50.2247 297.934 49.9799 298.002 49.7759C298.07 49.5855 298.233 49.4631 298.437 49.4223L304.952 48.2799C305.319 48.2119 305.564 48.4703 305.618 48.7559C305.673 49.0415 305.523 49.3679 305.156 49.4359L298.641 50.5783C298.641 50.5783 298.573 50.5783 298.533 50.5783ZM305.074 48.5927C305.074 48.5927 305.047 48.5927 305.02 48.5927L298.505 49.7351C298.41 49.7487 298.356 49.8031 298.329 49.8711C298.301 49.9663 298.329 50.0751 298.383 50.1567C298.437 50.2247 298.505 50.2383 298.601 50.2247L305.115 49.0823C305.333 49.0415 305.305 48.8239 305.305 48.7967C305.305 48.7695 305.265 48.5927 305.088 48.5927H305.074Z" fill="white"></path><path d="M299.362 39.4127L301.47 40.1743L304.816 41.3983L305.591 41.6839C306.094 41.8607 306.38 41.0855 305.877 40.9087L303.769 40.1471L300.423 38.9231L299.648 38.6375C299.145 38.4607 298.859 39.2359 299.362 39.4127Z" fill="white"></path><path d="M305.727 41.8743C305.727 41.8743 305.591 41.8743 305.523 41.8335L299.308 39.5623C299.104 39.4943 298.981 39.3311 298.941 39.1407C298.9 38.9231 298.981 38.6919 299.158 38.5559C299.308 38.4335 299.512 38.3927 299.716 38.4607L305.931 40.7319C306.135 40.7999 306.257 40.9631 306.298 41.1535C306.339 41.3711 306.257 41.6023 306.081 41.7383C305.985 41.8199 305.863 41.8607 305.741 41.8607L305.727 41.8743ZM299.498 38.7735C299.498 38.7735 299.403 38.7871 299.362 38.8279C299.294 38.8959 299.253 39.0047 299.267 39.0999C299.281 39.1815 299.335 39.2359 299.417 39.2631L305.632 41.5343C305.713 41.5615 305.795 41.5615 305.849 41.5071C305.917 41.4391 305.958 41.3303 305.945 41.2351C305.931 41.1535 305.877 41.0991 305.795 41.0719L299.58 38.8007C299.58 38.8007 299.512 38.7871 299.485 38.7871L299.498 38.7735Z" fill="white"></path><path d="M305.51 30.2599L306.951 31.9735L309.236 34.6935L309.766 35.3191C310.106 35.7271 310.745 35.1967 310.405 34.7887L308.964 33.0751L306.679 30.3551L306.149 29.7295C305.809 29.3215 305.17 29.8519 305.51 30.2599Z" fill="white"></path><path d="M310.052 35.6455C309.902 35.6455 309.753 35.5775 309.63 35.4415L305.373 30.3687C305.237 30.2055 305.197 30.0015 305.265 29.8247C305.333 29.6207 305.523 29.4575 305.741 29.4303C305.931 29.3895 306.121 29.4711 306.257 29.6343L310.514 34.7071C310.759 34.9927 310.65 35.3327 310.433 35.5231C310.324 35.6183 310.188 35.6727 310.038 35.6727L310.052 35.6455ZM305.632 30.1511L309.889 35.2239C310.038 35.4007 310.215 35.2647 310.229 35.2375C310.242 35.2239 310.419 35.0743 310.269 34.8975L306.013 29.8247C305.958 29.7567 305.89 29.7295 305.809 29.7431C305.713 29.7567 305.618 29.8383 305.591 29.9199C305.564 30.0015 305.591 30.0695 305.632 30.1375V30.1511Z" fill="white"></path><path d="M315.397 25.4184L315.791 27.6216L316.403 31.1168L316.539 31.9328C316.634 32.4632 317.45 32.3136 317.355 31.7832L316.961 29.58L316.349 26.0848L316.213 25.2688C316.117 24.7384 315.301 24.888 315.397 25.4184Z" fill="white"></path><path d="M316.947 32.436C316.879 32.436 316.811 32.436 316.743 32.3952C316.553 32.3272 316.43 32.164 316.389 31.96L315.247 25.4456C315.179 25.0784 315.437 24.8336 315.723 24.7792C316.009 24.7248 316.335 24.8744 316.403 25.2416L317.545 31.756C317.586 31.96 317.518 32.1504 317.355 32.2864C317.246 32.3816 317.097 32.436 316.947 32.436ZM315.818 25.1056C315.818 25.1056 315.777 25.1056 315.764 25.1056C315.737 25.1056 315.519 25.16 315.56 25.3776L316.702 31.892C316.716 31.9872 316.77 32.0416 316.838 32.0688C316.933 32.096 317.042 32.0688 317.124 32.0144C317.192 31.96 317.205 31.892 317.192 31.7968L316.049 25.2824C316.022 25.1192 315.886 25.092 315.818 25.092V25.1056Z" fill="white"></path><path d="M326.399 26.1664L325.637 28.2744L324.413 31.62L324.128 32.3952C323.951 32.8984 324.726 33.184 324.903 32.6808L325.665 30.5728L326.889 27.2272L327.174 26.452C327.351 25.9488 326.576 25.6632 326.399 26.1664Z" fill="white"></path><path d="M324.536 33.1024C324.359 33.1024 324.169 33.0208 324.06 32.8848C323.937 32.7352 323.897 32.5312 323.965 32.3272L326.236 26.112C326.358 25.7584 326.712 25.6768 326.984 25.772C327.256 25.8672 327.46 26.1528 327.337 26.5064L325.066 32.7216C324.998 32.9256 324.835 33.048 324.645 33.0888C324.604 33.0888 324.577 33.0888 324.536 33.0888V33.1024ZM326.549 26.2208L324.277 32.436C324.25 32.5176 324.25 32.5992 324.305 32.6536C324.373 32.7216 324.481 32.7624 324.577 32.7488C324.658 32.7352 324.713 32.6808 324.74 32.5992L327.011 26.384C327.093 26.1664 326.889 26.0848 326.861 26.0848C326.834 26.0848 326.63 26.0032 326.549 26.2208Z" fill="white"></path><path d="M335.538 32.3135L333.825 33.7551L331.105 36.0399L330.479 36.5703C330.071 36.9103 330.602 37.5495 331.01 37.2095L332.723 35.7679L335.443 33.4831L336.069 32.9527C336.477 32.6127 335.946 31.9735 335.538 32.3135Z" fill="white"></path><path d="M330.751 37.4679C330.574 37.4679 330.411 37.3727 330.302 37.2503C330.112 37.0327 330.071 36.6791 330.357 36.4343L335.429 32.1775C335.715 31.9327 336.055 32.0415 336.245 32.2591C336.436 32.4767 336.477 32.8303 336.177 33.0751L331.105 37.3319C330.982 37.4271 330.86 37.4679 330.737 37.4679H330.751ZM335.797 32.3815C335.797 32.3815 335.701 32.3951 335.647 32.4359L330.574 36.6927C330.397 36.8423 330.533 37.0191 330.561 37.0327C330.574 37.0463 330.724 37.2231 330.901 37.0735L335.973 32.8167C336.15 32.6671 336.014 32.4903 335.987 32.4767C335.987 32.4767 335.905 32.3815 335.797 32.3815Z" fill="white"></path><path d="M340.393 42.2144L338.19 42.6088L334.695 43.2208L333.879 43.3568C333.349 43.452 333.498 44.268 334.029 44.1728L336.232 43.7784L339.727 43.1664L340.543 43.0304C341.073 42.9352 340.924 42.1192 340.393 42.2144Z" fill="white"></path><path d="M333.933 44.3496C333.634 44.3496 333.43 44.1184 333.389 43.86C333.335 43.5744 333.485 43.248 333.852 43.18L340.366 42.0376C340.57 41.9968 340.761 42.0648 340.897 42.228C341.033 42.3912 341.073 42.636 341.005 42.84C340.937 43.0304 340.774 43.1528 340.57 43.1936L334.056 44.336C334.056 44.336 333.974 44.336 333.947 44.336L333.933 44.3496ZM340.475 42.364C340.475 42.364 340.448 42.364 340.421 42.364L333.906 43.5064C333.689 43.5472 333.716 43.7648 333.716 43.792C333.716 43.8192 333.77 44.0368 333.988 43.996L340.502 42.8536C340.597 42.84 340.652 42.7856 340.679 42.7176C340.706 42.6224 340.679 42.5136 340.625 42.432C340.584 42.3776 340.529 42.364 340.461 42.364H340.475Z" fill="white"></path><path d="M339.645 53.2031L337.537 52.4415L334.192 51.2175L333.417 50.9319C332.913 50.7551 332.628 51.5303 333.131 51.7071L335.239 52.4687L338.585 53.6927L339.36 53.9783C339.863 54.1551 340.149 53.3799 339.645 53.2031Z" fill="white"></path><path d="M339.509 54.1824C339.509 54.1824 339.373 54.1824 339.305 54.1416L333.09 51.8704C332.737 51.748 332.655 51.3944 332.75 51.1224C332.845 50.8504 333.131 50.6464 333.485 50.7688L339.7 53.04C339.904 53.108 340.026 53.2712 340.067 53.4616C340.108 53.6792 340.026 53.9104 339.849 54.0464C339.754 54.128 339.632 54.1688 339.509 54.1688V54.1824ZM333.281 51.0816C333.131 51.0816 333.077 51.2312 333.063 51.2448C333.063 51.272 332.981 51.476 333.199 51.5576L339.414 53.8288C339.496 53.856 339.577 53.856 339.632 53.8016C339.7 53.7336 339.741 53.6248 339.727 53.5296C339.713 53.448 339.659 53.3936 339.577 53.3664L333.362 51.0952C333.362 51.0952 333.294 51.0816 333.267 51.0816H333.281Z" fill="white"></path><path d="M333.498 62.3423L332.057 60.6287L329.772 57.9087L329.241 57.2831C328.901 56.8751 328.262 57.4055 328.602 57.8135L330.044 59.5271L332.329 62.2471L332.859 62.8727C333.199 63.2807 333.838 62.7503 333.498 62.3423Z" fill="white"></path><path d="M333.145 63.1991C332.995 63.1991 332.845 63.1311 332.723 62.9951L328.466 57.9223C328.33 57.7591 328.289 57.5551 328.357 57.3783C328.425 57.1743 328.616 57.0111 328.833 56.9839C329.024 56.9431 329.214 57.0247 329.35 57.1879L333.607 62.2607C333.852 62.5463 333.743 62.8863 333.525 63.0767C333.417 63.1719 333.281 63.2263 333.131 63.2263L333.145 63.1991ZM328.942 57.2967C328.942 57.2967 328.915 57.2967 328.901 57.2967C328.806 57.3103 328.711 57.3919 328.684 57.4735C328.657 57.5551 328.684 57.6231 328.725 57.6911L332.981 62.7639C333.131 62.9407 333.308 62.8047 333.321 62.7775C333.335 62.7639 333.512 62.6143 333.362 62.4375L329.105 57.3647C329.105 57.3647 328.997 57.2831 328.942 57.2831V57.2967Z" fill="white"></path><path d="M323.597 67.1975L323.203 64.9943L322.591 61.4991L322.455 60.6831C322.36 60.1527 321.544 60.3023 321.639 60.8327L322.033 63.0359L322.645 66.5311L322.781 67.3471C322.877 67.8775 323.693 67.7279 323.597 67.1975Z" fill="white"></path><path d="M323.176 67.8367C323.108 67.8367 323.04 67.8367 322.972 67.7959C322.781 67.7279 322.659 67.5647 322.618 67.3607L321.476 60.8463C321.408 60.4791 321.666 60.2343 321.952 60.1799C322.237 60.1255 322.564 60.2751 322.632 60.6423L323.774 67.1567C323.815 67.3607 323.747 67.5511 323.584 67.6871C323.475 67.7823 323.325 67.8367 323.176 67.8367ZM322.047 60.5063C322.047 60.5063 322.006 60.5063 321.993 60.5063C321.965 60.5063 321.748 60.5607 321.789 60.7783L322.931 67.2927C322.945 67.3879 322.999 67.4423 323.067 67.4695C323.162 67.4967 323.271 67.4695 323.353 67.4151C323.421 67.3607 323.434 67.2927 323.421 67.1975L322.278 60.6831C322.251 60.5199 322.115 60.4927 322.047 60.4927V60.5063Z" fill="white"></path><path d="M312.609 66.4496L313.37 64.3416L314.594 60.996L314.88 60.2208C315.057 59.7176 314.281 59.432 314.105 59.9352L313.343 62.0432L312.119 65.3888L311.833 66.164C311.657 66.6672 312.432 66.9528 312.609 66.4496Z" fill="white"></path><path d="M312.228 66.8711C312.051 66.8711 311.861 66.7895 311.752 66.6535C311.629 66.5039 311.589 66.2999 311.657 66.0959L313.928 59.8807C313.996 59.6767 314.159 59.5543 314.349 59.5135C314.567 59.4727 314.798 59.5543 314.934 59.7311C315.057 59.8807 315.097 60.0847 315.029 60.2887L312.758 66.5039C312.69 66.7079 312.527 66.8303 312.337 66.8711C312.296 66.8711 312.269 66.8711 312.228 66.8711ZM314.445 59.8399C314.445 59.8399 314.417 59.8399 314.404 59.8399C314.322 59.8535 314.268 59.9079 314.241 59.9895L311.969 66.2047C311.942 66.2863 311.942 66.3679 311.997 66.4223C312.065 66.4903 312.173 66.5311 312.269 66.5175C312.35 66.5039 312.405 66.4495 312.432 66.3679L314.703 60.1527C314.73 60.0711 314.73 59.9895 314.676 59.9351C314.621 59.8671 314.54 59.8399 314.458 59.8399H314.445Z" fill="white"></path></svg> 