<?xml version="1.0" encoding="UTF-8"?> <svg xmlns="http://www.w3.org/2000/svg" width="370" height="204" viewBox="0 0 370 204" fill="none"><path d="M370 0H0V204H370V0Z" fill="#CFECF9"></path><path d="M84.0471 48.484H138.148C141.493 48.484 141.643 43.4792 138.297 43.316C137.06 43.248 135.7 43.2616 134.177 43.3432C139.698 36.9104 123.569 16.0072 108.473 37.4136C108.473 37.4136 98.5855 27.132 92.6559 42.9488C92.6287 41.6432 87.5287 38.0664 83.7071 39.9024C78.7295 42.296 80.4295 48.348 84.0335 48.484H84.0471Z" fill="white"></path><path d="M319.504 56.0728C324.897 56.0728 329.269 51.701 329.269 46.308C329.269 40.9151 324.897 36.5432 319.504 36.5432C314.111 36.5432 309.739 40.9151 309.739 46.308C309.739 51.701 314.111 56.0728 319.504 56.0728Z" fill="white"></path><path d="M303.456 60.3023L305.169 58.8607L307.889 56.5759L308.515 56.0455C308.923 55.7055 308.393 55.0663 307.985 55.4063L306.271 56.8479L303.551 59.1327L302.925 59.6631C302.517 60.0031 303.048 60.6423 303.456 60.3023Z" fill="white"></path><path d="M303.197 60.5607C303.197 60.5607 303.075 60.5607 303.007 60.5335C302.803 60.4655 302.64 60.2751 302.613 60.0575C302.572 59.8671 302.653 59.6767 302.817 59.5407L307.889 55.2839C308.053 55.1479 308.257 55.1071 308.433 55.1751C308.637 55.2431 308.801 55.4335 308.828 55.6511C308.869 55.8415 308.787 56.0319 308.624 56.1679L303.551 60.4247C303.442 60.5199 303.32 60.5607 303.184 60.5607H303.197ZM308.243 55.4743C308.243 55.4743 308.148 55.4879 308.093 55.5287L303.021 59.7855C302.953 59.8399 302.926 59.9079 302.939 59.9895C302.953 60.0847 303.034 60.1799 303.116 60.2071C303.197 60.2343 303.265 60.2071 303.333 60.1663L308.406 55.9095C308.474 55.8551 308.502 55.7871 308.488 55.7055C308.474 55.6103 308.393 55.5151 308.311 55.4879C308.284 55.4879 308.257 55.4879 308.243 55.4879V55.4743Z" fill="white"></path><path d="M298.614 50.4015L300.817 50.0071L304.313 49.3951L305.129 49.2591C305.659 49.1639 305.509 48.3479 304.979 48.4431L302.776 48.8375L299.281 49.4495L298.465 49.5855C297.934 49.6807 298.084 50.4967 298.614 50.4015Z" fill="white"></path><path d="M298.533 50.5783C298.369 50.5783 298.22 50.5103 298.111 50.3879C297.975 50.2247 297.934 49.9799 298.002 49.7759C298.07 49.5855 298.233 49.4631 298.437 49.4223L304.952 48.2799C305.319 48.2119 305.564 48.4703 305.618 48.7559C305.673 49.0415 305.523 49.3679 305.156 49.4359L298.641 50.5783C298.641 50.5783 298.573 50.5783 298.533 50.5783ZM305.074 48.5927C305.074 48.5927 305.047 48.5927 305.02 48.5927L298.505 49.7351C298.41 49.7487 298.356 49.8031 298.329 49.8711C298.301 49.9663 298.329 50.0751 298.383 50.1567C298.437 50.2247 298.505 50.2383 298.601 50.2247L305.115 49.0823C305.333 49.0415 305.305 48.8239 305.305 48.7967C305.305 48.7695 305.265 48.5927 305.088 48.5927H305.074Z" fill="white"></path><path d="M299.362 39.4127L301.47 40.1743L304.816 41.3983L305.591 41.6839C306.094 41.8607 306.38 41.0855 305.877 40.9087L303.769 40.1471L300.423 38.9231L299.648 38.6375C299.145 38.4607 298.859 39.2359 299.362 39.4127Z" fill="white"></path><path d="M305.727 41.8743C305.727 41.8743 305.591 41.8743 305.523 41.8335L299.308 39.5623C299.104 39.4943 298.981 39.3311 298.941 39.1407C298.9 38.9231 298.981 38.6919 299.158 38.5559C299.308 38.4335 299.512 38.3927 299.716 38.4607L305.931 40.7319C306.135 40.7999 306.257 40.9631 306.298 41.1535C306.339 41.3711 306.257 41.6023 306.081 41.7383C305.985 41.8199 305.863 41.8607 305.741 41.8607L305.727 41.8743ZM299.498 38.7735C299.498 38.7735 299.403 38.7871 299.362 38.8279C299.294 38.8959 299.253 39.0047 299.267 39.0999C299.281 39.1815 299.335 39.2359 299.417 39.2631L305.632 41.5343C305.713 41.5615 305.795 41.5615 305.849 41.5071C305.917 41.4391 305.958 41.3303 305.945 41.2351C305.931 41.1535 305.877 41.0991 305.795 41.0719L299.58 38.8007C299.58 38.8007 299.512 38.7871 299.485 38.7871L299.498 38.7735Z" fill="white"></path><path d="M305.51 30.2599L306.951 31.9735L309.236 34.6935L309.766 35.3191C310.106 35.7271 310.745 35.1967 310.405 34.7887L308.964 33.0751L306.679 30.3551L306.149 29.7295C305.809 29.3215 305.17 29.8519 305.51 30.2599Z" fill="white"></path><path d="M310.052 35.6455C309.902 35.6455 309.753 35.5775 309.63 35.4415L305.373 30.3687C305.237 30.2055 305.197 30.0015 305.265 29.8247C305.333 29.6207 305.523 29.4575 305.741 29.4303C305.931 29.3895 306.121 29.4711 306.257 29.6343L310.514 34.7071C310.759 34.9927 310.65 35.3327 310.433 35.5231C310.324 35.6183 310.188 35.6727 310.038 35.6727L310.052 35.6455ZM305.632 30.1511L309.889 35.2239C310.038 35.4007 310.215 35.2647 310.229 35.2375C310.242 35.2239 310.419 35.0743 310.269 34.8975L306.013 29.8247C305.958 29.7567 305.89 29.7295 305.809 29.7431C305.713 29.7567 305.618 29.8383 305.591 29.9199C305.564 30.0015 305.591 30.0695 305.632 30.1375V30.1511Z" fill="white"></path><path d="M315.397 25.4184L315.791 27.6216L316.403 31.1168L316.539 31.9328C316.634 32.4632 317.45 32.3136 317.355 31.7832L316.961 29.58L316.349 26.0848L316.213 25.2688C316.117 24.7384 315.301 24.888 315.397 25.4184Z" fill="white"></path><path d="M316.947 32.436C316.879 32.436 316.811 32.436 316.743 32.3952C316.553 32.3272 316.43 32.164 316.389 31.96L315.247 25.4456C315.179 25.0784 315.437 24.8336 315.723 24.7792C316.009 24.7248 316.335 24.8744 316.403 25.2416L317.545 31.756C317.586 31.96 317.518 32.1504 317.355 32.2864C317.246 32.3816 317.097 32.436 316.947 32.436ZM315.818 25.1056C315.818 25.1056 315.777 25.1056 315.764 25.1056C315.737 25.1056 315.519 25.16 315.56 25.3776L316.702 31.892C316.716 31.9872 316.77 32.0416 316.838 32.0688C316.933 32.096 317.042 32.0688 317.124 32.0144C317.192 31.96 317.205 31.892 317.192 31.7968L316.049 25.2824C316.022 25.1192 315.886 25.092 315.818 25.092V25.1056Z" fill="white"></path><path d="M326.399 26.1664L325.637 28.2744L324.413 31.62L324.128 32.3952C323.951 32.8984 324.726 33.184 324.903 32.6808L325.665 30.5728L326.889 27.2272L327.174 26.452C327.351 25.9488 326.576 25.6632 326.399 26.1664Z" fill="white"></path><path d="M324.536 33.1024C324.359 33.1024 324.169 33.0208 324.06 32.8848C323.937 32.7352 323.897 32.5312 323.965 32.3272L326.236 26.112C326.358 25.7584 326.712 25.6768 326.984 25.772C327.256 25.8672 327.46 26.1528 327.337 26.5064L325.066 32.7216C324.998 32.9256 324.835 33.048 324.645 33.0888C324.604 33.0888 324.577 33.0888 324.536 33.0888V33.1024ZM326.549 26.2208L324.277 32.436C324.25 32.5176 324.25 32.5992 324.305 32.6536C324.373 32.7216 324.481 32.7624 324.577 32.7488C324.658 32.7352 324.713 32.6808 324.74 32.5992L327.011 26.384C327.093 26.1664 326.889 26.0848 326.861 26.0848C326.834 26.0848 326.63 26.0032 326.549 26.2208Z" fill="white"></path><path d="M335.538 32.3135L333.825 33.7551L331.105 36.0399L330.479 36.5703C330.071 36.9103 330.602 37.5495 331.01 37.2095L332.723 35.7679L335.443 33.4831L336.069 32.9527C336.477 32.6127 335.946 31.9735 335.538 32.3135Z" fill="white"></path><path d="M330.751 37.4679C330.574 37.4679 330.411 37.3727 330.302 37.2503C330.112 37.0327 330.071 36.6791 330.357 36.4343L335.429 32.1775C335.715 31.9327 336.055 32.0415 336.245 32.2591C336.436 32.4767 336.477 32.8303 336.177 33.0751L331.105 37.3319C330.982 37.4271 330.86 37.4679 330.737 37.4679H330.751ZM335.797 32.3815C335.797 32.3815 335.701 32.3951 335.647 32.4359L330.574 36.6927C330.397 36.8423 330.533 37.0191 330.561 37.0327C330.574 37.0463 330.724 37.2231 330.901 37.0735L335.973 32.8167C336.15 32.6671 336.014 32.4903 335.987 32.4767C335.987 32.4767 335.905 32.3815 335.797 32.3815Z" fill="white"></path><path d="M340.393 42.2144L338.19 42.6088L334.695 43.2208L333.879 43.3568C333.349 43.452 333.498 44.268 334.029 44.1728L336.232 43.7784L339.727 43.1664L340.543 43.0304C341.073 42.9352 340.924 42.1192 340.393 42.2144Z" fill="white"></path><path d="M333.933 44.3496C333.634 44.3496 333.43 44.1184 333.389 43.86C333.335 43.5744 333.485 43.248 333.852 43.18L340.366 42.0376C340.57 41.9968 340.761 42.0648 340.897 42.228C341.033 42.3912 341.073 42.636 341.005 42.84C340.937 43.0304 340.774 43.1528 340.57 43.1936L334.056 44.336C334.056 44.336 333.974 44.336 333.947 44.336L333.933 44.3496ZM340.475 42.364C340.475 42.364 340.448 42.364 340.421 42.364L333.906 43.5064C333.689 43.5472 333.716 43.7648 333.716 43.792C333.716 43.8192 333.77 44.0368 333.988 43.996L340.502 42.8536C340.597 42.84 340.652 42.7856 340.679 42.7176C340.706 42.6224 340.679 42.5136 340.625 42.432C340.584 42.3776 340.529 42.364 340.461 42.364H340.475Z" fill="white"></path><path d="M339.645 53.2031L337.537 52.4415L334.192 51.2175L333.417 50.9319C332.913 50.7551 332.628 51.5303 333.131 51.7071L335.239 52.4687L338.585 53.6927L339.36 53.9783C339.863 54.1551 340.149 53.3799 339.645 53.2031Z" fill="white"></path><path d="M339.509 54.1824C339.509 54.1824 339.373 54.1824 339.305 54.1416L333.09 51.8704C332.737 51.748 332.655 51.3944 332.75 51.1224C332.845 50.8504 333.131 50.6464 333.485 50.7688L339.7 53.04C339.904 53.108 340.026 53.2712 340.067 53.4616C340.108 53.6792 340.026 53.9104 339.849 54.0464C339.754 54.128 339.632 54.1688 339.509 54.1688V54.1824ZM333.281 51.0816C333.131 51.0816 333.077 51.2312 333.063 51.2448C333.063 51.272 332.981 51.476 333.199 51.5576L339.414 53.8288C339.496 53.856 339.577 53.856 339.632 53.8016C339.7 53.7336 339.741 53.6248 339.727 53.5296C339.713 53.448 339.659 53.3936 339.577 53.3664L333.362 51.0952C333.362 51.0952 333.294 51.0816 333.267 51.0816H333.281Z" fill="white"></path><path d="M333.498 62.3423L332.057 60.6287L329.772 57.9087L329.241 57.2831C328.901 56.8751 328.262 57.4055 328.602 57.8135L330.044 59.5271L332.329 62.2471L332.859 62.8727C333.199 63.2807 333.838 62.7503 333.498 62.3423Z" fill="white"></path><path d="M333.145 63.1991C332.995 63.1991 332.845 63.1311 332.723 62.9951L328.466 57.9223C328.33 57.7591 328.289 57.5551 328.357 57.3783C328.425 57.1743 328.616 57.0111 328.833 56.9839C329.024 56.9431 329.214 57.0247 329.35 57.1879L333.607 62.2607C333.852 62.5463 333.743 62.8863 333.525 63.0767C333.417 63.1719 333.281 63.2263 333.131 63.2263L333.145 63.1991ZM328.942 57.2967C328.942 57.2967 328.915 57.2967 328.901 57.2967C328.806 57.3103 328.711 57.3919 328.684 57.4735C328.657 57.5551 328.684 57.6231 328.725 57.6911L332.981 62.7639C333.131 62.9407 333.308 62.8047 333.321 62.7775C333.335 62.7639 333.512 62.6143 333.362 62.4375L329.105 57.3647C329.105 57.3647 328.997 57.2831 328.942 57.2831V57.2967Z" fill="white"></path><path d="M323.597 67.1975L323.203 64.9943L322.591 61.4991L322.455 60.6831C322.36 60.1527 321.544 60.3023 321.639 60.8327L322.033 63.0359L322.645 66.5311L322.781 67.3471C322.877 67.8775 323.693 67.7279 323.597 67.1975Z" fill="white"></path><path d="M323.176 67.8367C323.108 67.8367 323.04 67.8367 322.972 67.7959C322.781 67.7279 322.659 67.5647 322.618 67.3607L321.476 60.8463C321.408 60.4791 321.666 60.2343 321.952 60.1799C322.237 60.1255 322.564 60.2751 322.632 60.6423L323.774 67.1567C323.815 67.3607 323.747 67.5511 323.584 67.6871C323.475 67.7823 323.325 67.8367 323.176 67.8367ZM322.047 60.5063C322.047 60.5063 322.006 60.5063 321.993 60.5063C321.965 60.5063 321.748 60.5607 321.789 60.7783L322.931 67.2927C322.945 67.3879 322.999 67.4423 323.067 67.4695C323.162 67.4967 323.271 67.4695 323.353 67.4151C323.421 67.3607 323.434 67.2927 323.421 67.1975L322.278 60.6831C322.251 60.5199 322.115 60.4927 322.047 60.4927V60.5063Z" fill="white"></path><path d="M312.609 66.4496L313.37 64.3416L314.594 60.996L314.88 60.2208C315.057 59.7176 314.281 59.432 314.105 59.9352L313.343 62.0432L312.119 65.3888L311.833 66.164C311.657 66.6672 312.432 66.9528 312.609 66.4496Z" fill="white"></path><path d="M312.228 66.8711C312.051 66.8711 311.861 66.7895 311.752 66.6535C311.629 66.5039 311.589 66.2999 311.657 66.0959L313.928 59.8807C313.996 59.6767 314.159 59.5543 314.349 59.5135C314.567 59.4727 314.798 59.5543 314.934 59.7311C315.057 59.8807 315.097 60.0847 315.029 60.2887L312.758 66.5039C312.69 66.7079 312.527 66.8303 312.337 66.8711C312.296 66.8711 312.269 66.8711 312.228 66.8711ZM314.445 59.8399C314.445 59.8399 314.417 59.8399 314.404 59.8399C314.322 59.8535 314.268 59.9079 314.241 59.9895L311.969 66.2047C311.942 66.2863 311.942 66.3679 311.997 66.4223C312.065 66.4903 312.173 66.5311 312.269 66.5175C312.35 66.5039 312.405 66.4495 312.432 66.3679L314.703 60.1527C314.73 60.0711 314.73 59.9895 314.676 59.9351C314.621 59.8671 314.54 59.8399 314.458 59.8399H314.445Z" fill="white"></path><path d="M83.1359 169.701H66.0679L64.3271 163.118C62.7903 157.311 66.8431 151.354 72.8407 151.001C73.0311 151.001 73.2215 150.987 73.4119 150.987C78.7839 150.987 83.1359 155.339 83.1359 160.711V169.701Z" fill="#02C14F"></path><path d="M94.8726 169.701H76.7302C76.7302 169.701 67.659 132.926 84.3734 128.629C101.088 124.331 94.8726 169.701 94.8726 169.701Z" fill="#02C14F"></path><path d="M89.2151 149.491C89.1743 149.097 89.1199 148.702 89.0655 148.308C89.0247 148.009 88.6439 147.846 88.3719 147.914C88.0455 148.009 87.9367 148.308 87.9775 148.607C88.2903 150.906 88.4807 153.258 88.2631 155.584C88.2495 155.802 88.2223 156.019 88.1951 156.237C88.1951 156.237 88.1951 156.264 88.1951 156.278C88.1951 156.318 88.1951 156.373 88.1815 156.414C88.1679 156.522 88.1543 156.631 88.1271 156.726C88.0591 157.08 87.9911 157.447 87.8959 157.787C87.8143 158.086 87.7191 158.399 87.6103 158.685C87.5831 158.753 87.5559 158.821 87.5287 158.889C87.5967 158.726 87.5015 158.943 87.4743 158.998C87.4199 159.12 87.3655 159.242 87.2975 159.351C87.1887 159.569 87.0527 159.773 86.9167 159.963C86.9167 159.977 86.8895 159.99 86.8895 160.004C86.8623 160.045 86.8215 160.086 86.7943 160.126C86.7263 160.208 86.6583 160.276 86.5903 160.358C86.5223 160.426 86.4543 160.494 86.3727 160.562C86.3319 160.589 86.3047 160.616 86.2639 160.657C86.1279 160.752 85.9783 160.847 85.8287 160.929C85.7607 160.97 85.6791 160.997 85.6111 161.038C85.5703 161.038 85.5431 161.065 85.5023 161.078C85.3663 161.133 85.2303 161.174 85.0807 161.201C85.0127 161.214 84.9447 161.228 84.8767 161.242C84.8767 161.242 84.8767 161.242 84.8495 161.242H84.8223C84.6999 161.242 84.5911 161.255 84.4687 161.255C84.3735 161.255 84.2647 161.255 84.1695 161.255C84.1287 161.255 84.0879 161.255 84.0471 161.255C84.0063 161.255 83.9519 161.242 83.9111 161.228C83.8839 160.997 83.8567 160.779 83.8295 160.548L82.9183 152.66L82.1295 145.86C82.0071 144.758 81.8847 143.657 81.7487 142.569C81.7487 142.555 81.7487 142.542 81.7487 142.528C81.7079 142.229 81.5175 141.97 81.1911 141.97C80.9191 141.97 80.5927 142.229 80.6335 142.528C80.7423 143.439 80.8375 144.337 80.9463 145.248C81.1911 147.41 81.4495 149.586 81.6943 151.749C81.9935 154.374 82.3063 157.012 82.6055 159.637C82.8639 161.908 83.1223 164.166 83.3943 166.437C83.5167 167.525 83.6391 168.613 83.7751 169.714H84.8903C84.7951 168.83 84.6863 167.946 84.5911 167.062C84.4143 165.498 84.2375 163.948 84.0471 162.384C84.1423 162.384 84.2375 162.398 84.3327 162.398C84.9719 162.425 85.5975 162.275 86.1687 162.017C86.9711 161.65 87.6239 160.997 88.0863 160.262C88.8343 159.079 89.1471 157.678 89.3375 156.305C89.6367 154.047 89.5007 151.749 89.2423 149.491H89.2151Z" fill="#053C5E"></path><path d="M95.8383 90.1545L144.173 79.7641L144.091 70.1761C144.091 69.0609 145.002 68.1497 146.117 68.1497H154.957C156.073 68.1497 156.984 69.0609 156.984 70.1761L157.065 77.5609L212.553 69.7137C214.865 69.7137 216.742 71.5905 216.742 73.9025L196.587 165.512C196.587 167.824 194.71 169.701 192.398 169.701H95.8383C93.5263 169.701 91.6495 167.824 91.6495 165.512V94.3433C91.6495 92.0313 93.5263 90.1545 95.8383 90.1545Z" fill="#FDF4E5"></path><path d="M116.306 90.1545L148.334 82.6609L148.375 70.1761C148.375 69.0609 149.286 68.1497 150.401 68.1497H159.459C160.574 68.1497 161.485 69.0609 161.485 70.1761L160.928 80.7569L212.88 69.8089C215.192 69.8089 217.069 71.6857 217.069 73.9977V165.512C217.069 167.824 215.192 169.701 212.88 169.701H116.32C114.008 169.701 112.131 167.824 112.131 165.512V94.3433C112.131 92.0313 114.008 90.1545 116.32 90.1545H116.306Z" fill="white"></path><path d="M132.749 118.388H143.602V105.55H132.749V118.388Z" fill="#CFECF9"></path><path d="M120.359 118.388H131.212V105.55H120.359V118.388Z" fill="#CFECF9"></path><path d="M132.749 132.981H143.602V120.142H132.749V132.981Z" fill="#CFECF9"></path><path d="M120.359 132.981H131.212V120.142H120.359V132.981Z" fill="#CFECF9"></path><path d="M166.463 169.701H194.642V131.526H166.463V169.701Z" fill="#008CFF"></path><path d="M201.061 118.919H270.911C283.287 118.919 293.324 128.969 293.324 141.331V147.261C293.324 159.637 283.273 169.674 270.911 169.674H201.061V118.905V118.919Z" fill="white"></path><path d="M272.978 136.898C283.314 136.898 291.692 130.596 291.692 122.822C291.692 115.048 283.314 108.746 272.978 108.746C262.643 108.746 254.265 115.048 254.265 122.822C254.265 130.596 262.643 136.898 272.978 136.898Z" fill="#02C14F"></path><path d="M275.209 123.148C290.561 123.148 303.007 112.036 303.007 98.3281C303.007 84.6204 290.561 73.5081 275.209 73.5081C259.856 73.5081 247.41 84.6204 247.41 98.3281C247.41 112.036 259.856 123.148 275.209 123.148Z" fill="#02C14F"></path><path d="M285.721 138.407C301.074 138.407 313.52 127.295 313.52 113.587C313.52 99.8795 301.074 88.7672 285.721 88.7672C270.369 88.7672 257.923 99.8795 257.923 113.587C257.923 127.295 270.369 138.407 285.721 138.407Z" fill="#02C14F"></path><path d="M271.591 169.619H280.118V129.649C280.118 129.649 297.812 129.594 294.602 99.0217C294.548 98.5457 294.153 98.1921 293.677 98.1921C293.133 98.1921 292.712 98.6545 292.753 99.1849C293.161 104.162 294.126 126.126 280.105 127.201L283.763 87.4481C283.845 86.6185 283.192 85.9113 282.362 85.9113C281.641 85.9113 281.043 86.4417 280.961 87.1625L278.269 111.044C278.201 111.71 277.385 111.969 276.922 111.493L262.928 96.4785C262.547 96.0705 261.894 96.0569 261.5 96.4785C261.146 96.8457 261.133 97.4305 261.473 97.8113L275.97 114.145L271.564 169.646L271.591 169.619Z" fill="#053C5E"></path><path d="M64.0007 169.66H293.337" stroke="#02C14F" stroke-width="2" stroke-miterlimit="10" stroke-linecap="round"></path></svg> 